<?xml version="1.0" standalone="no"?>
<!DOCTYPE svg PUBLIC "-//W3C//DTD SVG 20010904//EN"
 "http://www.w3.org/TR/2001/REC-SVG-20010904/DTD/svg10.dtd">
<svg version="1.0" xmlns="http://www.w3.org/2000/svg"
 width="500.000000pt" height="500.000000pt" viewBox="0 0 500.000000 500.000000"
 preserveAspectRatio="xMidYMid meet">

<g transform="translate(0.000000,500.000000) scale(0.100000,-0.100000)"
fill="#000000" stroke="none">
<path d="M0 2500 l0 -2500 2500 0 2500 0 0 2500 0 2500 -2500 0 -2500 0 0
-2500z m2243 1914 c82 -21 151 -57 206 -109 l46 -43 48 43 c170 149 403 163
587 34 113 -79 207 -225 245 -377 l17 -70 70 -10 c106 -16 189 -61 279 -151
83 -83 144 -190 175 -306 21 -81 29 -255 15 -330 -6 -33 -115 -427 -241 -876
l-230 -816 0 -396 c0 -384 -1 -398 -20 -417 -11 -11 -29 -20 -40 -20 -21 0
-60 33 -60 50 0 7 -288 10 -845 10 -639 0 -845 -3 -845 -12 0 -19 -32 -48 -53
-48 -11 0 -29 7 -39 17 -17 15 -18 39 -18 349 l0 333 -237 898 -237 898 -4
133 c-5 164 12 247 75 374 86 172 232 285 402 310 64 9 71 13 71 33 0 44 52
181 96 252 126 202 337 299 537 247z"/>
<path d="M2060 3976 c-20 -13 -49 -48 -65 -77 -26 -47 -30 -64 -30 -134 0 -70
4 -87 29 -133 37 -66 75 -94 135 -99 58 -6 103 22 145 90 38 62 48 173 21 242
-45 120 -150 169 -235 111z"/>
<path d="M2805 3990 c-32 -12 -91 -83 -106 -126 -17 -50 -17 -148 0 -197 16
-46 63 -102 102 -123 90 -46 191 23 224 154 14 52 14 72 5 120 -14 68 -24 88
-59 125 -48 52 -111 70 -166 47z"/>
<path d="M1529 3440 c-89 -47 -134 -197 -94 -311 66 -186 254 -186 320 0 40
116 -6 266 -96 312 -47 24 -84 24 -130 -1z"/>
<path d="M3345 3446 c-132 -59 -159 -300 -45 -411 32 -31 48 -39 89 -43 43 -4
57 0 90 21 109 72 130 279 38 383 -54 62 -109 78 -172 50z"/>
<path d="M2412 3075 c-76 -39 -125 -102 -244 -317 -125 -224 -136 -248 -144
-320 -9 -81 9 -132 69 -192 42 -42 66 -57 127 -77 70 -22 89 -24 285 -24 191
1 215 3 269 23 81 30 131 64 163 114 25 38 28 50 28 132 0 103 2 98 -143 356
-102 184 -151 251 -210 289 -71 46 -132 50 -200 16z m28 -275 c26 -26 26 -50
0 -50 -11 0 -23 7 -26 15 -4 9 -19 15 -35 15 -31 0 -44 -25 -37 -71 4 -34 52
-39 77 -8 18 23 41 19 41 -7 0 -29 -38 -54 -85 -54 -40 0 -48 4 -66 33 -26 41
-20 104 11 129 31 25 95 23 120 -2z m240 -5 c0 -16 6 -25 15 -25 8 0 15 -4 15
-10 0 -5 -7 -10 -15 -10 -11 0 -15 -11 -15 -39 0 -30 4 -40 20 -44 36 -9 23
-28 -17 -25 -38 3 -38 3 -41 53 -2 27 -9 53 -15 58 -9 7 -9 10 1 14 6 2 12 16
12 29 0 17 6 24 20 24 15 0 20 -7 20 -25z m-82 -37 c7 -7 12 -35 12 -64 l0
-51 -62 1 c-61 1 -63 2 -66 28 -3 25 1 29 42 40 25 6 43 15 40 20 -7 12 -44
10 -44 -2 0 -5 -9 -10 -20 -10 -23 0 -24 4 -10 31 8 14 21 19 53 19 24 0 48
-5 55 -12z m-97 -200 c1 -7 0 -25 -1 -40 -3 -46 27 -35 35 12 6 34 10 40 32
40 23 0 25 -3 21 -40 -2 -28 0 -40 9 -40 7 0 13 -9 13 -20 0 -13 -7 -20 -19
-20 -13 0 -20 -9 -23 -30 -4 -23 0 -30 16 -32 12 -2 22 -11 24 -20 3 -14 -3
-18 -26 -18 -26 0 -31 -4 -36 -35 -6 -29 -11 -35 -33 -35 -24 0 -25 2 -20 36
5 29 3 35 -10 32 -9 -2 -21 -18 -25 -36 -7 -27 -13 -33 -31 -30 -18 2 -22 9
-19 36 1 17 -2 32 -8 32 -5 0 -10 9 -10 20 0 11 6 20 14 20 14 0 26 21 26 46
0 8 -9 14 -20 14 -13 0 -20 7 -20 20 0 15 7 20 25 20 19 0 26 7 31 28 10 48
13 52 34 52 11 0 20 -6 21 -12z"/>
<path d="M2525 2680 c-3 -5 3 -10 14 -10 11 0 23 5 26 10 3 6 -3 10 -14 10
-11 0 -23 -4 -26 -10z"/>
<path d="M2487 2443 c-13 -13 -7 -53 8 -53 8 0 15 6 15 14 0 8 3 21 6 30 6 16
-16 23 -29 9z"/>
</g>
</svg>
