<?xml version="1.0" standalone="no"?>
<!DOCTYPE svg PUBLIC "-//W3C//DTD SVG 20010904//EN"
 "http://www.w3.org/TR/2001/REC-SVG-20010904/DTD/svg10.dtd">
<svg version="1.0" xmlns="http://www.w3.org/2000/svg"
 width="1000.000000pt" height="1000.000000pt" viewBox="0 0 1000.000000 1000.000000"
 preserveAspectRatio="xMidYMid meet">

<g transform="translate(0.000000,1000.000000) scale(0.100000,-0.100000)"
fill="#000000" stroke="none">
<path d="M0 5000 l0 -5000 5000 0 5000 0 0 5000 0 5000 -5000 0 -5000 0 0
-5000z m5875 4141 c57 -22 106 -70 973 -935 761 -760 917 -920 940 -966 l27
-55 3 -3257 2 -3258 -2760 0 -2760 0 0 4164 0 4164 28 53 c19 37 43 64 76 87
l49 32 1681 -2 1681 -3 60 -24z"/>
<path d="M2790 4920 l0 -3760 705 0 705 0 0 278 0 279 -229 874 c-126 481
-235 905 -242 944 -42 244 53 521 233 672 63 53 172 102 245 109 l62 7 10 47
c38 179 151 346 287 426 178 104 419 77 566 -64 l37 -35 43 39 c58 53 101 78
177 103 83 27 197 28 280 2 175 -54 332 -239 379 -447 l17 -74 36 0 c103 0
247 -75 337 -176 62 -68 132 -207 157 -307 19 -79 22 -267 5 -342 -6 -27 -112
-408 -235 -846 l-225 -796 0 -347 0 -346 595 0 595 0 0 2928 0 2927 -833 833
-832 832 -1438 0 -1437 0 0 -3760z"/>
<path d="M4730 4406 c-20 -13 -49 -48 -65 -77 -26 -47 -30 -64 -30 -134 0 -70
4 -87 29 -133 37 -66 75 -94 135 -99 58 -6 103 22 145 90 38 62 48 173 21 242
-45 120 -150 169 -235 111z"/>
<path d="M5475 4420 c-32 -12 -91 -83 -106 -126 -17 -50 -17 -148 0 -197 16
-46 63 -102 102 -123 90 -46 191 23 224 154 14 52 14 72 5 120 -14 68 -24 88
-59 125 -48 52 -111 70 -166 47z"/>
<path d="M4199 3870 c-89 -47 -134 -197 -94 -311 53 -148 194 -187 279 -76 93
121 63 327 -55 388 -47 24 -84 24 -130 -1z"/>
<path d="M6015 3876 c-132 -59 -159 -300 -45 -411 32 -31 48 -39 89 -43 43 -4
57 0 90 21 109 72 130 279 38 383 -54 62 -109 78 -172 50z"/>
<path d="M5082 3505 c-76 -39 -125 -102 -244 -317 -125 -224 -136 -248 -144
-320 -9 -81 9 -132 69 -192 42 -42 66 -57 127 -77 70 -22 89 -24 285 -24 191
1 215 3 269 23 81 30 131 64 163 114 25 38 28 50 28 132 0 103 2 98 -143 356
-102 184 -151 251 -210 289 -71 46 -132 50 -200 16z m28 -275 c26 -26 26 -50
0 -50 -11 0 -23 7 -26 15 -4 9 -19 15 -35 15 -31 0 -44 -25 -37 -71 4 -34 52
-39 77 -8 18 23 41 19 41 -7 0 -29 -38 -54 -85 -54 -40 0 -48 4 -66 33 -26 41
-20 104 11 129 31 25 95 23 120 -2z m240 -5 c0 -16 6 -25 15 -25 8 0 15 -4 15
-10 0 -5 -7 -10 -15 -10 -11 0 -15 -11 -15 -39 0 -30 4 -40 20 -44 36 -9 23
-28 -17 -25 -38 3 -38 3 -41 53 -2 27 -9 53 -15 58 -9 7 -9 10 1 14 6 2 12 16
12 29 0 17 6 24 20 24 15 0 20 -7 20 -25z m-82 -37 c7 -7 12 -35 12 -64 l0
-51 -62 1 c-61 1 -63 2 -66 28 -3 25 1 29 42 40 25 6 43 15 40 20 -7 12 -44
10 -44 -2 0 -5 -9 -10 -20 -10 -23 0 -24 4 -10 31 8 14 21 19 53 19 24 0 48
-5 55 -12z m-97 -200 c1 -7 0 -25 -1 -40 -3 -46 27 -35 35 12 6 34 10 40 32
40 23 0 25 -3 21 -40 -2 -28 0 -40 9 -40 7 0 13 -9 13 -20 0 -13 -7 -20 -19
-20 -13 0 -20 -9 -23 -30 -4 -23 0 -30 16 -32 12 -2 22 -11 24 -20 3 -14 -3
-18 -26 -18 -26 0 -31 -4 -36 -35 -6 -29 -11 -35 -33 -35 -24 0 -25 2 -20 36
5 29 3 35 -10 32 -9 -2 -21 -18 -25 -36 -7 -27 -13 -33 -31 -30 -18 2 -22 9
-19 36 1 17 -2 32 -8 32 -5 0 -10 9 -10 20 0 11 6 20 14 20 14 0 26 21 26 46
0 8 -9 14 -20 14 -13 0 -20 7 -20 20 0 15 7 20 25 20 19 0 26 7 31 28 10 48
13 52 34 52 11 0 20 -6 21 -12z"/>
<path d="M5195 3110 c-3 -5 3 -10 14 -10 11 0 23 5 26 10 3 6 -3 10 -14 10
-11 0 -23 -4 -26 -10z"/>
<path d="M5157 2873 c-13 -13 -7 -53 8 -53 8 0 15 6 15 14 0 8 3 21 6 30 6 16
-16 23 -29 9z"/>
</g>
</svg>
